#!OML:ASF H:\Dans Jumps\Project 1\Capture day 1\Session 1\subject.ASF
:FULLY-SPECIFIED
:DEGREES
155
root 0.415093 14.9056 -16.1854 18.6193 -1.24412 -1.07772
lowerback 21.0314 0.285007 -0.875741
upperback 10.227 0.255743 1.95506
thorax -0.669359 0.0361879 2.52453
lowerneck -15.2422 0.836438 -0.281277
upperneck 15.1477 1.67938 -2.66604
head 7.17631 0.539098 -0.645539
rclavicle -1.78906e-015 -2.5842e-015
rhumerus -38.98 -19.2972 -64.949
rradius 24.5647
rwrist 31.8185
rhand -18.3368 -23.5899
rfingers 7.12502
rthumb 7.94532 -53.4206
lclavicle -1.78906e-015 -2.5842e-015
lhumerus -34.6233 0.562643 81.8906
lradius 17.8787
lwrist 12.807
lhand -27.3052 -5.32952
lfingers 7.12502
lthumb -0.714869 24.649
rfemur -64.7567 -3.22962 20.4706
rtibia 73.2088
rfoot -25.3113 -7.25304
rtoes -2.62246
lfemur -64.3571 7.78098 -23.1459
ltibia 72.3471
lfoot -23.5939 10.1628
ltoes -4.07066
156
root 0.411485 14.8486 -16.2058 18.7426 -1.21526 -1.04535
lowerback 21.2823 0.295189 -0.916989
upperback 10.2897 0.260642 1.95153
thorax -0.726241 0.0370938 2.54442
lowerneck -15.2989 0.830852 -0.29217
upperneck 14.8837 1.66663 -2.65905
head 7.09984 0.535916 -0.642357
rclavicle 3.18055e-015 -3.18055e-015
rhumerus -39.4569 -19.2673 -64.6966
rradius 24.514
rwrist 31.8066
rhand -18.4142 -23.5404
rfingers 7.12502
rthumb 7.87057 -53.3739
lclavicle 3.18055e-015 -3.18055e-015
lhumerus -34.9834 0.82956 81.7057
lradius 17.7435
lwrist 12.6992
lhand -27.402 -5.54396
lfingers 7.12502
lthumb -0.808311 24.4343
rfemur -65.4038 -3.27098 20.4743
rtibia 73.9111
rfoot -25.4805 -7.30225
rtoes -2.64847
lfemur -65.0028 7.75106 -23.2142
ltibia 73.0273
lfoot -23.7298 10.2561
ltoes -4.15031
157
root 0.407998 14.7919 -16.2261 18.8749 -1.18151 -1.01417
lowerback 21.5266 0.302454 -0.95092
upperback 10.349 0.26309 1.95008
thorax -0.7831 0.037038 2.56288
lowerneck -15.3612 0.827607 -0.302049
upperneck 14.6128 1.65849 -2.66188
head 7.02236 0.534147 -0.642048
rclavicle -2.98177e-015 7.55382e-015
rhumerus -39.9345 -19.2375 -64.4423
rradius 24.4596
rwrist 31.7981
rhand -18.4736 -23.4671
rfingers 7.12502
rthumb 7.81323 -53.3027
lclavicle -2.98177e-015 7.55382e-015
lhumerus -35.3413 1.1277 81.5034
lradius 17.609
lwrist 12.5868
lhand -27.5048 -5.76543
lfingers 7.12502
lthumb -0.907618 24.2124
rfemur -66.0572 -3.31318 20.4812
rtibia 74.6035
rfoot -25.6393 -7.367
rtoes -2.70774
lfemur -65.6537 7.71713 -23.2818
ltibia 73.6967
lfoot -23.86 10.3454
ltoes -4.22844
158
root 0.404522 14.7353 -16.2462 19.0132 -1.13824 -0.97901
lowerback 21.7668 0.307823 -0.977937
upperback 10.4053 0.264349 1.94827
thorax -0.840752 0.0367263 2.57725
lowerneck -15.4204 0.82173 -0.308007
upperneck 14.3286 1.64639 -2.6698
head 6.94021 0.530452 -0.644452
rclavicle -2.38542e-015 8.15017e-015
rhumerus -40.4222 -19.234 -64.1748
rradius 24.3967
rwrist 31.8116
rhand -18.545 -23.33
rfingers 7.12502
rthumb 7.74433 -53.1682
lclavicle -2.38542e-015 8.15017e-015
lhumerus -35.6889 1.44969 81.2792
lradius 17.4617
lwrist 12.4681
lhand -27.6257 -6.07611
lfingers 7.12502
lthumb -1.02443 23.9012
rfemur -66.7139 -3.36094 20.4865
rtibia 75.2883
rfoot -25.7907 -7.44203
rtoes -2.77528
lfemur -66.3061 7.67319 -23.3514
ltibia 74.3558
lfoot -23.9855 10.4305
ltoes -4.31149
159
root 0.401082 14.6789 -16.2663 19.1577 -1.08451 -0.940204
lowerback 22.0064 0.310434 -0.995852
upperback 10.4571 0.263797 1.94589
thorax -0.902491 0.0359811 2.58624
lowerneck -15.4823 0.814182 -0.307334
upperneck 14.0376 1.63177 -2.68602
head 6.85653 0.525254 -0.650875
rclavicle 6.75868e-015 3.18055e-015
rhumerus -40.9249 -19.2552 -63.8917
rradius 24.3309
rwrist 31.8504
rhand -18.5565 -23.1601
rfingers 7.12502
rthumb 7.73323 -52.9987
lclavicle 6.75868e-015 3.18055e-015
lhumerus -36.0329 1.76803 81.0469
lradius 17.3191
lwrist 12.3677
lhand -27.7211 -6.31644
lfingers 7.12502
lthumb -1.11653 23.6604
rfemur -67.3751 -3.4161 20.4911
rtibia 75.9676
rfoot -25.9367 -7.52709
rtoes -2.85278
lfemur -66.9616 7.61744 -23.4219
ltibia 75.0067
lfoot -24.1088 10.508
ltoes -4.37611
160
root 0.397599 14.6221 -16.2863 19.3046 -1.02267 -0.894868
lowerback 22.2512 0.311932 -1.01014
upperback 10.5043 0.262541 1.94264
thorax -0.971478 0.0351986 2.59245
lowerneck -15.5464 0.802697 -0.305069
upperneck 13.7414 1.61144 -2.70302
head 6.77164 0.517387 -0.658384
rclavicle -8.74653e-015 8.94531e-015
rhumerus -41.4473 -19.3011 -63.5893
rradius 24.2623
rwrist 31.9316
rhand -18.5306 -22.9612
rfingers 7.12502
rthumb 7.75824 -52.7988
lclavicle -8.74653e-015 8.94531e-015
lhumerus -36.3738 2.07847 80.8087
lradius 17.1755
lwrist 12.2785
lhand -27.7961 -6.52076
lfingers 7.12502
lthumb -1.189 23.4557
rfemur -68.0386 -3.47871 20.4904
rtibia 76.6447
rfoot -26.0813 -7.61025
rtoes -2.91102
lfemur -67.6182 7.55273 -23.4975
ltibia 75.652
lfoot -24.2294 10.58
ltoes -4.43946
161
root 0.394032 14.5651 -16.3063 19.4504 -0.952197 -0.845255
lowerback 22.5062 0.31139 -1.02006
upperback 10.5473 0.25958 1.93936
thorax -1.04967 0.0338962 2.59658
lowerneck -15.6114 0.787774 -0.307063
upperneck 13.4431 1.58647 -2.71492
head 6.68619 0.507543 -0.664009
rclavicle 9.93923e-016 -1.72943e-014
rhumerus -41.988 -19.3615 -63.2702
rradius 24.1922
rwrist 32.0517
rhand -18.4541 -22.7822
rfingers 7.12502
rthumb 7.83207 -52.6171
lclavicle 9.93923e-016 -1.72943e-014
lhumerus -36.7154 2.37133 80.5712
lradius 17.0363
lwrist 12.2009
lhand -27.85 -6.65977
lfingers 7.12502
lthumb -1.24105 23.3164
rfemur -68.6999 -3.54807 20.4863
rtibia 77.3208
rfoot -26.2276 -7.69044
rtoes -2.95171
lfemur -68.2732 7.48039 -23.5752
ltibia 76.2937
lfoot -24.3497 10.6442
ltoes -4.49732
162
root 0.390242 14.5075 -16.3264 19.5921 -0.879379 -0.790385
lowerback 22.7728 0.310186 -1.03294
upperback 10.5886 0.255185 1.93559
thorax -1.13493 0.0319093 2.60233
lowerneck -15.6833 0.769856 -0.318781
upperneck 13.1466 1.55811 -2.71662
head 6.60244 0.49637 -0.66509
rclavicle 1.59028e-015 2.38542e-015
rhumerus -42.5418 -19.4218 -62.9416
rradius 24.1186
rwrist 32.2072
rhand -18.3635 -22.6375
rfingers 7.12502
rthumb 7.9195 -52.4691
lclavicle 1.59028e-015 2.38542e-015
lhumerus -37.0603 2.65244 80.3331
lradius 16.9089
lwrist 12.1223
lhand -27.8119 -6.63695
lfingers 7.12502
lthumb -1.20426 23.3394
rfemur -69.3577 -3.61834 20.4761
rtibia 77.9965
rfoot -26.3722 -7.77014
rtoes -2.98811
lfemur -68.9248 7.40673 -23.6579
ltibia 76.9327
lfoot -24.47 10.701
ltoes -4.54912
163
root 0.386269 14.4497 -16.3464 19.7249 -0.805419 -0.733043
lowerback 23.055 0.307161 -1.04913
upperback 10.6287 0.247791 1.93238
thorax -1.22848 0.0284239 2.61141
lowerneck -15.7553 0.750606 -0.345263
upperneck 12.8508 1.52905 -2.70432
head 6.51877 0.485327 -0.659335
rclavicle 5.96354e-016 -5.96354e-015
rhumerus -43.105 -19.4751 -62.6045
rradius 24.0435
rwrist 32.3902
rhand -18.2573 -22.5435
rfingers 7.12502
rthumb 8.02203 -52.3713
lclavicle 5.96354e-016 -5.96354e-015
lhumerus -37.4164 2.91888 80.0971
lradius 16.7961
lwrist 12.0408
lhand -27.7953 -6.5977
lfingers 7.12502
lthumb -1.18816 23.3787
rfemur -70.0049 -3.68741 20.4617
rtibia 78.6701
rfoot -26.5164 -7.85045
rtoes -3.02264
lfemur -69.5666 7.33598 -23.7435
ltibia 77.5691
lfoot -24.588 10.7523
ltoes -4.60714
164
root 0.381956 14.3919 -16.3663 19.8442 -0.737027 -0.674125
lowerback 23.355 0.305969 -1.07267
upperback 10.67 0.241072 1.92861
thorax -1.32905 0.0250967 2.62412
lowerneck -15.8272 0.728669 -0.385692
upperneck 12.5548 1.4972 -2.67689
head 6.43488 0.473556 -0.646757
rclavicle 5.96354e-015 7.95139e-015
rhumerus -43.6772 -19.5196 -62.2623
rradius 23.9688
rwrist 32.5681
rhand -18.1757 -22.4746
rfingers 7.12502
rthumb 8.10079 -52.2994
lclavicle 5.96354e-015 7.95139e-015
lhumerus -37.784 3.18164 79.8535
lradius 16.6948
lwrist 11.9343
lhand -27.8457 -6.60726
lfingers 7.12502
lthumb -1.2369 23.3689
rfemur -70.6359 -3.74745 20.4423
rtibia 79.34
rfoot -26.6575 -7.9348
rtoes -3.065
lfemur -70.1935 7.2776 -23.8328
ltibia 78.2026
lfoot -24.7059 10.7948
ltoes -4.6629
165
root 0.377336 14.3338 -16.3862 19.9511 -0.678396 -0.616641
lowerback 23.6712 0.307998 -1.10272
upperback 10.713 0.236813 1.92405
thorax -1.43526 0.0228079 2.6393
lowerneck -15.9045 0.705979 -0.432862
upperneck 12.2611 1.46526 -2.64378
head 6.35268 0.46184 -0.631294
rclavicle 8.54774e-015 3.57812e-015
rhumerus -44.2554 -19.5545 -61.9192
rradius 23.8973
rwrist 32.7313
rhand -18.1125 -22.4296
rfingers 7.12502
rthumb 8.16174 -52.252
lclavicle 8.54774e-015 3.57812e-015
lhumerus -38.1666 3.43641 79.6036
lradius 16.6095
lwrist 11.8073
lhand -28.0788 -6.75042
lfingers 7.12502
lthumb -1.462 23.2243
rfemur -71.2534 -3.7943 20.4201
rtibia 80.006
rfoot -26.794 -8.02545
rtoes -3.11773
lfemur -70.8079 7.23783 -23.9249
ltibia 78.8346
lfoot -24.8241 10.8271
ltoes -4.71071
